<?xml version="1.0" encoding="UTF-8" standalone="no"?>
<!DOCTYPE svg PUBLIC "-//W3C//DTD SVG 1.1//EN"
 "http://www.w3.org/Graphics/SVG/1.1/DTD/svg11.dtd">
<!-- Generated by graphviz version 2.43.0 (0)
 -->
<!-- Title: example Pages: 1 -->
<svg width="385pt" height="309pt"
 viewBox="0.00 0.00 385.00 309.00" xmlns="http://www.w3.org/2000/svg" xmlns:xlink="http://www.w3.org/1999/xlink">
<g id="graph0" class="graph" transform="scale(1 1) rotate(0) translate(4 305)">
<title>example</title>
<polygon fill="white" stroke="transparent" points="-4,4 -4,-305 381,-305 381,4 -4,4"/>
<!-- boost Graph -->
<g id="node1" class="node">
<title>boost Graph</title>
<g id="a_node1"><a xlink:href="https://www.boost.org/libs/graph/doc/Graph.html" target="_top" xlink:title="\N">
<polygon fill="none" stroke="black" points="152.5,-264.5 152.5,-300.5 228.5,-300.5 228.5,-264.5 152.5,-264.5"/>
<text text-anchor="middle" x="190.5" y="-280" font-family="Helvetica,sans-Serif" font-size="10.00">boost Graph</text>
</a>
</g>
</g>
<!-- HalfedgeGraph -->
<g id="node2" class="node">
<title>HalfedgeGraph</title>
<g id="a_node2"><a xlink:href="classHalfedgeGraph.html" target="_top" xlink:title="\N">
<polygon fill="none" stroke="black" points="145.5,-176.5 145.5,-212.5 235.5,-212.5 235.5,-176.5 145.5,-176.5"/>
<text text-anchor="middle" x="190.5" y="-192" font-family="Helvetica,sans-Serif" font-size="10.00">HalfedgeGraph</text>
</a>
</g>
</g>
<!-- HalfedgeGraph&#45;&gt;boost Graph -->
<g id="edge2" class="edge">
<title>HalfedgeGraph&#45;&gt;boost Graph</title>
<path fill="none" stroke="black" d="M190.5,-212.9C190.5,-224.75 190.5,-240.68 190.5,-254.21"/>
<polygon fill="black" stroke="black" points="190.5,-264.42 186,-254.42 190.5,-259.42 190.5,-254.42 190.5,-254.42 190.5,-254.42 190.5,-259.42 195,-254.42 190.5,-264.42 190.5,-264.42"/>
<text text-anchor="middle" x="215" y="-234.8" font-family="Times,serif" font-size="14.00">refines</text>
</g>
<!-- HalfedgeListGraph -->
<g id="node3" class="node">
<title>HalfedgeListGraph</title>
<g id="a_node3"><a xlink:href="classHalfedgeListGraph.html" target="_top" xlink:title="\N">
<polygon fill="none" stroke="black" points="0,-88.5 0,-124.5 107,-124.5 107,-88.5 0,-88.5"/>
<text text-anchor="middle" x="53.5" y="-104" font-family="Helvetica,sans-Serif" font-size="10.00">HalfedgeListGraph</text>
</a>
</g>
</g>
<!-- HalfedgeListGraph&#45;&gt;HalfedgeGraph -->
<g id="edge7" class="edge">
<title>HalfedgeListGraph&#45;&gt;HalfedgeGraph</title>
<path fill="none" stroke="black" d="M80.89,-124.7C102.08,-138 131.6,-156.52 154.66,-171"/>
<polygon fill="black" stroke="black" points="163.15,-176.33 152.29,-174.83 158.92,-173.67 154.68,-171.02 154.68,-171.02 154.68,-171.02 158.92,-173.67 157.08,-167.21 163.15,-176.33 163.15,-176.33"/>
<text text-anchor="middle" x="155" y="-146.8" font-family="Times,serif" font-size="14.00">refines</text>
</g>
<!-- MutableHalfedgeGraph -->
<g id="node4" class="node">
<title>MutableHalfedgeGraph</title>
<g id="a_node4"><a xlink:href="classMutableHalfedgeGraph.html" target="_top" xlink:title="\N">
<polygon fill="none" stroke="black" points="125.5,-88.5 125.5,-124.5 255.5,-124.5 255.5,-88.5 125.5,-88.5"/>
<text text-anchor="middle" x="190.5" y="-104" font-family="Helvetica,sans-Serif" font-size="10.00">MutableHalfedgeGraph</text>
</a>
</g>
</g>
<!-- MutableHalfedgeGraph&#45;&gt;HalfedgeGraph -->
<g id="edge1" class="edge">
<title>MutableHalfedgeGraph&#45;&gt;HalfedgeGraph</title>
<path fill="none" stroke="black" d="M190.5,-124.9C190.5,-136.75 190.5,-152.68 190.5,-166.21"/>
<polygon fill="black" stroke="black" points="190.5,-176.42 186,-166.42 190.5,-171.42 190.5,-166.42 190.5,-166.42 190.5,-166.42 190.5,-171.42 195,-166.42 190.5,-176.42 190.5,-176.42"/>
<text text-anchor="middle" x="215" y="-146.8" font-family="Times,serif" font-size="14.00">refines</text>
</g>
<!-- FaceGraph -->
<g id="node5" class="node">
<title>FaceGraph</title>
<g id="a_node5"><a xlink:href="classFaceGraph.html" target="_top" xlink:title="\N">
<polygon fill="none" stroke="black" points="273.5,-88.5 273.5,-124.5 341.5,-124.5 341.5,-88.5 273.5,-88.5"/>
<text text-anchor="middle" x="307.5" y="-104" font-family="Helvetica,sans-Serif" font-size="10.00">FaceGraph</text>
</a>
</g>
</g>
<!-- FaceGraph&#45;&gt;HalfedgeGraph -->
<g id="edge4" class="edge">
<title>FaceGraph&#45;&gt;HalfedgeGraph</title>
<path fill="none" stroke="black" d="M286.77,-124.52C274.4,-134.52 258.26,-147.26 243.5,-158 237.78,-162.16 231.62,-166.45 225.6,-170.55"/>
<polygon fill="black" stroke="black" points="216.93,-176.38 222.71,-167.07 221.08,-173.59 225.22,-170.8 225.22,-170.8 225.22,-170.8 221.08,-173.59 227.74,-174.54 216.93,-176.38 216.93,-176.38"/>
<text text-anchor="middle" x="288" y="-146.8" font-family="Times,serif" font-size="14.00">refines</text>
</g>
<!-- FaceListGraph -->
<g id="node6" class="node">
<title>FaceListGraph</title>
<g id="a_node6"><a xlink:href="classFaceListGraph.html" target="_top" xlink:title="\N">
<polygon fill="none" stroke="black" points="292,-0.5 292,-36.5 377,-36.5 377,-0.5 292,-0.5"/>
<text text-anchor="middle" x="334.5" y="-16" font-family="Helvetica,sans-Serif" font-size="10.00">FaceListGraph</text>
</a>
</g>
</g>
<!-- FaceListGraph&#45;&gt;FaceGraph -->
<g id="edge3" class="edge">
<title>FaceListGraph&#45;&gt;FaceGraph</title>
<path fill="none" stroke="black" d="M329.04,-36.9C325.28,-48.87 320.22,-65 315.94,-78.61"/>
<polygon fill="black" stroke="black" points="312.86,-88.42 311.57,-77.53 314.36,-83.65 315.86,-78.88 315.86,-78.88 315.86,-78.88 314.36,-83.65 320.15,-80.22 312.86,-88.42 312.86,-88.42"/>
<text text-anchor="middle" x="348" y="-58.8" font-family="Times,serif" font-size="14.00">refines</text>
</g>
<!-- MutableFaceGraph -->
<g id="node7" class="node">
<title>MutableFaceGraph</title>
<g id="a_node7"><a xlink:href="classMutableFaceGraph.html" target="_top" xlink:title="\N">
<polygon fill="none" stroke="black" points="152,-0.5 152,-36.5 259,-36.5 259,-0.5 152,-0.5"/>
<text text-anchor="middle" x="205.5" y="-16" font-family="Helvetica,sans-Serif" font-size="10.00">MutableFaceGraph</text>
</a>
</g>
</g>
<!-- MutableFaceGraph&#45;&gt;MutableHalfedgeGraph -->
<g id="edge5" class="edge">
<title>MutableFaceGraph&#45;&gt;MutableHalfedgeGraph</title>
<path fill="none" stroke="black" d="M197.25,-36.82C194.94,-42.49 192.72,-48.89 191.5,-55 190.02,-62.36 189.42,-70.45 189.28,-77.96"/>
<polygon fill="black" stroke="black" points="189.33,-88.04 184.78,-78.06 189.31,-83.04 189.28,-78.04 189.28,-78.04 189.28,-78.04 189.31,-83.04 193.78,-78.02 189.33,-88.04 189.33,-88.04"/>
<text text-anchor="middle" x="216" y="-58.8" font-family="Times,serif" font-size="14.00">refines</text>
</g>
<!-- MutableFaceGraph&#45;&gt;FaceGraph -->
<g id="edge6" class="edge">
<title>MutableFaceGraph&#45;&gt;FaceGraph</title>
<path fill="none" stroke="black" d="M226.14,-36.9C241.45,-49.81 262.49,-67.55 279.35,-81.76"/>
<polygon fill="black" stroke="black" points="287.24,-88.42 276.69,-85.41 283.41,-85.19 279.59,-81.97 279.59,-81.97 279.59,-81.97 283.41,-85.19 282.49,-78.53 287.24,-88.42 287.24,-88.42"/>
<text text-anchor="middle" x="288" y="-58.8" font-family="Times,serif" font-size="14.00">refines</text>
</g>
</g>
</svg>
